# xmcd CD database file
#
# Track frame offsets:
#	150
#	14871
#	55948
#	79869
#	107785
#	130111
#	156989
#	181123
#	201608
#	223161
#	238723
#	268691
#
# Disc length: 3814 seconds
#
# Revision: 0
# Processed by: cddbd v1.5.2PL0 Copyright (c) Steve Scherf et al.
# Submitted via: CDex 1.51
#
DISCID=b50ee40c
DTITLE=Alan Barnes - Better Late Than Never
DYEAR=1993
DGENRE=Jazz
TTITLE0=Lets Face The Music And Dance
TTITLE1=Mood Indigo
TTITLE2=B
TTITLE3=O Grande Amour
TTITLE4=One For Bruce
TTITLE5=Chelsea Bridge
TTITLE6=Better Late Than Never
TTITLE7=Donna Lee
TTITLE8=How Long Has This Been Going On?
TTITLE9=Lazybird
TTITLE10=Below Zero
TTITLE11=Raincheck
EXTD=YEAR: 1993
EXTT0=
EXTT1=
EXTT2=
EXTT3=
EXTT4=
EXTT5=
EXTT6=
EXTT7=
EXTT8=
EXTT9=
EXTT10=
EXTT11=
PLAYORDER=
